<svg xmlns="http://www.w3.org/2000/svg" xmlns:xlink="http://www.w3.org/1999/xlink" version="1.1" width="105" height="48" viewBox="0 0 3170.4545454545455 1448.8636363636365"><g transform="scale(8.522727272727273) translate(10, 10)"><defs id="SvgjsDefs1015"></defs><g id="SvgjsG1016" featureKey="symbolFeature-0" transform="matrix(28.644497738905955,0,0,28.644497738905955,-23.601010520660584,3.9565651403380784)" fill="#f19953"><g xmlns="http://www.w3.org/2000/svg"><path d="M3.814,2.209c-0.077,0.05-0.167,0.096-0.266,0.136C3.45,2.384,3.341,2.417,3.228,2.444S2.994,2.489,2.872,2.5   C2.811,2.506,2.749,2.51,2.687,2.512C2.655,2.513,2.625,2.513,2.594,2.514l-0.096,0C2.376,2.509,2.25,2.499,2.13,2.481   C2.01,2.464,1.892,2.44,1.782,2.408c-0.111-0.032-0.215-0.07-0.309-0.113S1.294,2.204,1.224,2.153   c-0.07-0.052-0.126-0.105-0.167-0.156C1.017,1.946,0.993,1.898,0.979,1.859c-0.003-0.01-0.006-0.02-0.009-0.028   C0.968,1.823,0.967,1.815,0.965,1.809c0.057-0.131,0.132-0.256,0.224-0.371c0,0,0,0,0,0C1.203,1.497,1.236,1.58,1.302,1.655   C1.366,1.73,1.457,1.798,1.566,1.853c0.108,0.056,0.235,0.098,0.375,0.125c0.07,0.015,0.143,0.025,0.218,0.032   c0.076,0.006,0.154,0.009,0.233,0.008c0.04,0,0.08-0.002,0.122-0.004c0.02-0.001,0.039-0.002,0.06-0.004s0.042-0.004,0.063-0.006   C2.72,1.994,2.804,1.979,2.889,1.961C2.973,1.943,3.058,1.92,3.142,1.89C3.183,1.875,3.225,1.858,3.266,1.84   c0.041-0.019,0.082-0.039,0.122-0.062c0.079-0.045,0.156-0.099,0.219-0.17c0.031-0.036,0.059-0.075,0.08-0.12   s0.032-0.094,0.032-0.144c0-0.005,0-0.01,0-0.014C3.887,1.51,4.009,1.717,4.085,1.937c-0.02,0.036-0.046,0.075-0.081,0.113   C3.956,2.104,3.892,2.159,3.814,2.209z"></path><path d="M3.937,2.97C3.85,3.019,3.75,3.064,3.641,3.102C3.531,3.14,3.413,3.171,3.289,3.196S3.035,3.239,2.903,3.25   C2.836,3.255,2.77,3.259,2.702,3.261c-0.034,0.001-0.066,0.001-0.1,0.001L2.499,3.261C2.366,3.258,2.23,3.248,2.099,3.231   C1.968,3.214,1.84,3.19,1.719,3.16c-0.122-0.03-0.236-0.066-0.341-0.109c-0.104-0.042-0.199-0.09-0.279-0.14   c-0.041-0.025-0.077-0.052-0.11-0.078C0.957,2.806,0.928,2.78,0.904,2.753c-0.03-0.032-0.053-0.063-0.07-0.092   C0.815,2.492,0.823,2.319,0.857,2.15c0.002,0.003,0.005,0.006,0.008,0.009C0.925,2.228,1,2.292,1.088,2.35s0.188,0.108,0.296,0.152   C1.492,2.545,1.608,2.581,1.73,2.609c0.122,0.028,0.249,0.048,0.378,0.06s0.26,0.017,0.393,0.014L2.597,2.68   C2.63,2.677,2.664,2.676,2.696,2.673C2.761,2.667,2.826,2.661,2.89,2.651C3.018,2.632,3.142,2.607,3.26,2.574   C3.379,2.54,3.491,2.5,3.594,2.453c0.103-0.048,0.197-0.101,0.278-0.159c0.081-0.059,0.148-0.123,0.2-0.187   c0.017-0.021,0.032-0.042,0.045-0.062c0.069,0.255,0.077,0.522,0.023,0.78C4.116,2.848,4.087,2.871,4.057,2.894   C4.02,2.919,3.98,2.946,3.937,2.97z"></path><path d="M3.652,1.345c0,0.08-0.04,0.157-0.098,0.217c-0.028,0.03-0.061,0.057-0.095,0.082C3.424,1.667,3.387,1.688,3.35,1.708   c-0.153,0.075-0.32,0.112-0.481,0.13c-0.081,0.01-0.161,0.013-0.24,0.012c-0.019,0-0.038,0-0.057-0.001   c-0.019,0-0.04-0.001-0.059-0.002C2.476,1.845,2.437,1.842,2.4,1.838C2.327,1.831,2.256,1.819,2.188,1.806   C2.121,1.792,2.056,1.776,1.996,1.758C1.875,1.721,1.77,1.676,1.687,1.628C1.604,1.58,1.542,1.528,1.507,1.483   C1.471,1.438,1.458,1.403,1.454,1.38c-0.001-0.005,0-0.007-0.001-0.01L1.451,1.369c0,0,0-0.003,0-0.005c0-0.003,0-0.006,0-0.009   c0-0.004,0-0.008,0-0.011c0-0.001,0-0.003,0-0.008c0-0.006,0.001-0.014,0.003-0.025c0.005-0.023,0.017-0.058,0.053-0.103   c0.036-0.045,0.097-0.097,0.18-0.145c0.044-0.026,0.096-0.051,0.152-0.074C1.835,1.001,1.833,1.013,1.831,1.023   C1.827,1.057,1.827,1.076,1.827,1.076l0,0.011c0,0,0.001,0.011,0.002,0.031c0.002,0.015,0.008,0.044,0.017,0.069   c0.009,0.021,0.02,0.047,0.036,0.07c0.031,0.048,0.078,0.094,0.134,0.13S2.14,1.45,2.213,1.466s0.151,0.022,0.233,0.018   c0.01,0,0.021-0.001,0.03-0.002L2.491,1.48l0.008,0c-0.002,0,0.004,0,0.003,0h0.001l0.002-0.001h0.003   c0.02-0.003,0.037-0.005,0.058-0.009c0.044-0.008,0.085-0.019,0.126-0.032c0.083-0.026,0.166-0.063,0.239-0.12   c0.01-0.006,0.018-0.015,0.026-0.022l0.013-0.012l0.012-0.013c0.017-0.016,0.032-0.036,0.045-0.056   c0.026-0.041,0.044-0.09,0.044-0.141L3.07,1.041c-0.002-0.013-0.006-0.026-0.009-0.04C3.057,0.989,3.052,0.978,3.047,0.966   C3.042,0.956,3.035,0.945,3.029,0.935c-0.014-0.02-0.028-0.04-0.045-0.056L2.982,0.877c0.235,0.071,0.458,0.194,0.65,0.37   C3.645,1.279,3.652,1.312,3.652,1.345z"></path><path d="M2.141,3.976c0.119,0.008,0.238,0.011,0.36,0.008L2.589,3.98c0.03-0.002,0.061-0.003,0.09-0.006   c0.06-0.004,0.119-0.01,0.177-0.018c0.117-0.015,0.232-0.035,0.341-0.061C3.307,3.872,3.412,3.84,3.509,3.804   C3.524,3.798,3.54,3.792,3.555,3.786C2.987,4.247,2.188,4.281,1.586,3.888c0.067,0.018,0.137,0.033,0.208,0.046   C1.907,3.954,2.023,3.968,2.141,3.976z"></path><path d="M2.1,1.096C2.1,1.096,2.1,1.097,2.1,1.096l0-0.001c0-0.009-0.001-0.016-0.001-0.021c0-0.001,0-0.003,0-0.008   C2.099,1.063,2.1,1.06,2.101,1.055c0.003-0.005,0.003-0.011,0.008-0.02C2.118,1.02,2.135,0.998,2.164,0.974   c0.028-0.023,0.069-0.049,0.118-0.071c0.013-0.005,0.026-0.01,0.039-0.016c0.013-0.005,0.027-0.01,0.042-0.015   c0.014-0.004,0.03-0.009,0.045-0.013c0.015-0.003,0.028-0.007,0.045-0.011c0.004,0,0.009-0.001,0.013-0.002   c0.075-0.005,0.152-0.008,0.231-0.006c0.027,0.004,0.053,0.01,0.08,0.017c0.01,0.003,0.018,0.006,0.027,0.009   c0.009,0.003,0.018,0.006,0.027,0.01l0.026,0.012l0.025,0.014c0.065,0.038,0.12,0.101,0.119,0.172c0,0.035-0.013,0.069-0.035,0.098   c-0.022,0.03-0.052,0.054-0.084,0.074L2.858,1.262L2.832,1.273c-0.009,0.004-0.018,0.007-0.027,0.01S2.788,1.291,2.778,1.292   c-0.037,0.01-0.074,0.018-0.111,0.02C2.63,1.317,2.593,1.316,2.56,1.314C2.543,1.313,2.522,1.311,2.504,1.31   C2.488,1.307,2.472,1.304,2.456,1.302C2.39,1.29,2.331,1.27,2.282,1.248s-0.09-0.047-0.118-0.071   C2.135,1.153,2.118,1.131,2.109,1.115C2.104,1.108,2.104,1.102,2.1,1.096L2.1,1.096L2.1,1.096C2.102,1.096,2.101,1.095,2.1,1.096   L2.1,1.096L2.1,1.096z"></path><path d="M3.473,3.698C3.379,3.727,3.278,3.751,3.172,3.77s-0.217,0.032-0.33,0.04c-0.056,0.004-0.113,0.006-0.17,0.007   c-0.029,0.001-0.057,0-0.085,0.001L2.499,3.816c-0.113-0.003-0.229-0.012-0.34-0.026c-0.111-0.014-0.22-0.034-0.324-0.058   c-0.103-0.024-0.201-0.054-0.29-0.087c-0.09-0.034-0.171-0.071-0.24-0.112C1.236,3.494,1.178,3.451,1.136,3.41   C1.094,3.368,1.067,3.329,1.053,3.298c-0.015-0.03-0.019-0.058-0.02-0.064c0,0,0-0.01-0.001-0.014c0-0.005,0-0.009,0-0.013   c0-0.007-0.001-0.01-0.001-0.01c0-0.021-0.006-0.041-0.015-0.059C1.103,3.184,1.198,3.226,1.299,3.26   c0.117,0.041,0.243,0.075,0.374,0.102S1.94,3.407,2.08,3.418C2.218,3.43,2.358,3.434,2.501,3.431l0.104-0.004   C2.64,3.425,2.676,3.423,2.71,3.42C2.78,3.416,2.85,3.409,2.918,3.399c0.137-0.018,0.271-0.042,0.4-0.074   c0.128-0.032,0.25-0.071,0.363-0.116c0.113-0.044,0.216-0.097,0.307-0.154c0.041-0.025,0.079-0.052,0.114-0.079   c-0.066,0.214-0.176,0.417-0.33,0.596C3.759,3.581,3.744,3.589,3.729,3.597C3.653,3.635,3.566,3.669,3.473,3.698z"></path></g></g><g id="SvgjsG1017" featureKey="textGroupContainer" transform="matrix(1,0,0,1,351,0)" fill="#4464ad"><rect xmlns="http://www.w3.org/2000/svg" y="0" height="1" width="1" opacity="0"></rect><rect xmlns="http://www.w3.org/2000/svg" y="0" x="-235" width="3" height="150"></rect></g><g id="SvgjsG1018" featureKey="nameFeature-0" transform="matrix(2.879354746161743,0,0,2.879354746161743,133.99999862701668,22.566660922104393)" fill="#4464ad"><path d="M7.64 5.359999999999999 c4.2 0 7.62 3.42 7.62 7.64 s-3.42 7.62 -7.62 7.62 c-4.22 0 -7.64 -3.4 -7.64 -7.62 s3.42 -7.64 7.64 -7.64 z M7.64 19.08 c3.36 0 6.08 -2.72 6.08 -6.08 s-2.72 -6.1 -6.08 -6.1 c-3.38 0 -6.1 2.74 -6.1 6.1 s2.72 6.08 6.1 6.08 z M7.64 8.44 c2.5 0 4.54 2.06 4.54 4.56 s-2.04 4.54 -4.54 4.54 s-4.56 -2.04 -4.56 -4.54 s2.06 -4.56 4.56 -4.56 z M7.64 16 c1.66 0 3 -1.34 3 -3 c0 -1.68 -1.34 -3.02 -3 -3.02 c-1.68 0 -3.02 1.34 -3.02 3.02 c0 1.66 1.34 3 3.02 3 z M33.36 5.98 l0 4.68 l-10.62 0 l0 1.56 l7.88 0 l0 1.56 l-9.44 0 l0 -4.68 l10.62 0 l0 -1.56 l-12.18 0 l0 10.9 l1.56 0 l0 -3.12 l1.56 0 l0 4.68 l-4.68 0 l0 -14.02 l15.3 0 z M50.54 5.98 l0 6.44 c0 4.16 -3.4 7.58 -7.6 7.58 c-4.12 0 -7.42 -3.24 -7.58 -7.32 l0 -6.7 l4.58 0 l0 6.44 c0 1.66 1.34 3 3 3 s2.94 -1.3 3 -2.92 l0 -6.52 l1.52 0 l0 6.44 c0 2.48 -2.02 4.52 -4.52 4.52 c-2.46 0 -4.5 -2 -4.5 -4.48 l-0.02 0 l0 -4.94 l-1.5 0 l0 5 c0.06 3.28 2.74 5.92 6.02 5.92 c3.34 0 6.02 -2.7 6.02 -6.02 l0 -6.44 l1.58 0 z  M60.160000000000004 9.98 c-1.68 0 -3.02 1.34 -3.02 3.02 c0 1.66 1.34 3 3.02 3 c1.1 0 2.02 -0.58 2.56 -1.44 c0.38 0.7 0.74 1.32 1.08 1.86 c0.52 0.94 1.12 1.9 1.18 2.02 l1.8 0 c-0.06 -0.08 -0.42 -0.68 -0.74 -1.24 c-0.2 -0.34 -0.42 -0.7 -0.64 -1.12 c0.54 -0.94 0.84 -1.96 0.84 -3.08 c0 -3.36 -2.72 -6.1 -6.08 -6.1 c-3.38 0 -6.1 2.74 -6.1 6.1 s2.72 6.08 6.1 6.08 c0.5 0 0.98 -0.06 1.46 -0.18 l0.8 1.38 c-0.74 0.22 -1.5 0.34 -2.26 0.34 c-4.22 0 -7.64 -3.4 -7.64 -7.62 s3.42 -7.64 7.64 -7.64 c4.2 0 7.62 3.42 7.62 7.64 c0 1.06 -0.2 2.06 -0.62 3 c0.58 1.02 1.12 2.02 1.58 2.76 c0.24 0.44 0.48 0.86 0.72 1.24 l-5.38 0 c-0.1 -0.2 -0.98 -1.7 -1.76 -3.02 c-0.66 0.38 -1.38 0.56 -2.16 0.56 c-2.5 0 -4.56 -2.04 -4.56 -4.54 s2.06 -4.56 4.56 -4.56 s4.54 2.06 4.54 4.56 c0 0.5 -0.08 0.98 -0.24 1.44 l-0.96 -1.64 c-0.5 -0.86 -1.02 -1.68 -1.1 -1.82 c-0.56 -0.62 -1.36 -1 -2.24 -1 z"></path></g><g id="SvgjsG1019" featureKey="sloganFeature-0" transform="matrix(0.7612015758670625,0,0,0.7612015758670625,137.6098174522321,97.66624253166131)" fill="#f19953"><path d="M9.4043 12.5488 c1.5918 0.43945 2.6563 1.4844 2.6563 3.4961 c0 2.3828 -1.4453 3.9551 -4.4238 3.9551 l-5.8105 0 l0 -14.111 l4.5703 0 c3.0469 0 4.6484 1.4648 4.6484 3.8672 c0 1.2402 -0.53711 2.2559 -1.6406 2.793 z M6.4258 8.32 l-1.7773 0 l0 3.3203 l1.9043 0 c1.25 0 1.7969 -0.74219 1.7969 -1.6992 c0 -0.9375 -0.61523 -1.6211 -1.9238 -1.6211 z M7.0898 17.4902 c1.582 0 2.1289 -0.84961 2.1289 -1.7676 c0 -0.9375 -0.53711 -1.8262 -2.1875 -1.8262 l-2.3828 0 l0 3.5938 l2.4414 0 z M23.332753906249998 8.467 l-5.2344 0 l0 3.2031 l4.6387 0 l0 2.5488 l-4.6387 0 l0 3.1934 l5.2344 0 l0 2.5879 l-8.1836 0 l0 -14.111 l8.1836 0 l0 2.5781 z M37.4168828125 5.888999999999999 l-4.6387 7.3535 l0 6.7578 l-2.9395 0 l0 -6.6895 l-4.668 -7.4219 l3.2422 0 l2.8809 4.8047 l2.8906 -4.8047 l3.2324 0 z M46.13039921875 20.19531 c-4.1504 0 -7.2168 -2.832 -7.2168 -7.2559 c0 -4.4336 3.0664 -7.2461 7.2168 -7.2461 c4.1406 0 7.207 2.8125 7.207 7.2461 c0 4.4238 -3.0664 7.2559 -7.207 7.2559 z M46.13039921875 17.5098 c2.4316 0 4.2969 -1.709 4.2969 -4.5703 c0 -2.8516 -1.8652 -4.5508 -4.2969 -4.5508 s-4.2969 1.6992 -4.2969 4.5508 c0 2.8613 1.8652 4.5703 4.2969 4.5703 z M66.1525 5.888999999999999 l2.9199 0 l0 14.111 l-3.3887 0 l-6.25 -10.088 l0 10.088 l-2.9199 0 l0 -14.111 l3.3496 0 l6.2891 10.029 l0 -10.029 z M73.20559453125 20 l0 -14.111 l5.1074 0 c4.502 0 6.7285 2.832 6.7285 7.0508 c0 4.2285 -2.2266 7.0605 -6.7285 7.0605 l-5.1074 0 z M76.13529453125 17.4121 l2.0313 0 c2.5977 0 3.7891 -1.6211 3.7891 -4.4727 s-1.1914 -4.4727 -3.7891 -4.4727 l-2.0313 0 l0 8.9453 z M102.12669921875 5.888999999999999 l0 2.5781 l-3.3496 0 l0 11.533 l-2.9004 0 l0 -11.533 l-3.3691 0 l0 -2.5781 l9.6191 0 z M113.721046875 5.888999999999999 l2.9297 0 l0 14.111 l-2.9297 0 l0 -5.8008 l-5.9668 0 l0 5.8008 l-2.9297 0 l0 -14.111 l2.9297 0 l0 5.7617 l5.9668 0 l0 -5.7617 z M128.96751953125 8.467 l-5.2344 0 l0 3.2031 l4.6387 0 l0 2.5488 l-4.6387 0 l0 3.1934 l5.2344 0 l0 2.5879 l-8.1836 0 l0 -14.111 l8.1836 0 l0 2.5781 z M147.03891796875 5.888999999999999 l2.9297 0 l0 14.111 l-2.9297 0 l0 -5.8008 l-5.9668 0 l0 5.8008 l-2.9297 0 l0 -14.111 l2.9297 0 l0 5.7617 l5.9668 0 l0 -5.7617 z M160.351590625 20.19531 c-4.1504 0 -7.2168 -2.832 -7.2168 -7.2559 c0 -4.4336 3.0664 -7.2461 7.2168 -7.2461 c4.1406 0 7.207 2.8125 7.207 7.2461 c0 4.4238 -3.0664 7.2559 -7.207 7.2559 z M160.351590625 17.5098 c2.4316 0 4.2969 -1.709 4.2969 -4.5703 c0 -2.8516 -1.8652 -4.5508 -4.2969 -4.5508 s-4.2969 1.6992 -4.2969 4.5508 c0 2.8613 1.8652 4.5703 4.2969 4.5703 z M178.18599140625 20 l-3.6719 -6.2109 l-0.84961 0 l0 6.2109 l-2.9297 0 l0 -14.111 l5.1172 0 c3.1934 0 4.541 1.8848 4.541 4.2188 c0 1.8945 -1.0742 3.125 -2.9883 3.5352 l4.248 6.3574 l-3.4668 0 z M173.66459140625 8.32 l0 3.3691 l1.7285 0 c1.5625 0 2.1973 -0.66406 2.1973 -1.6797 c0 -1.0059 -0.63477 -1.6895 -2.1973 -1.6895 l-1.7285 0 z M184.2822546875 20 l0 -14.111 l2.9297 0 l0 14.111 l-2.9297 0 z M193.90377734375 17.4121 l6.7773 0 l0 2.5879 l-10.283 0 l0 -2.3145 l6.6895 -9.2188 l-6.6797 0 l0 -2.5781 l10.146 0 l0 2.3145 z M210.097684375 20.19531 c-4.1504 0 -7.2168 -2.832 -7.2168 -7.2559 c0 -4.4336 3.0664 -7.2461 7.2168 -7.2461 c4.1406 0 7.207 2.8125 7.207 7.2461 c0 4.4238 -3.0664 7.2559 -7.207 7.2559 z M210.097684375 17.5098 c2.4316 0 4.2969 -1.709 4.2969 -4.5703 c0 -2.8516 -1.8652 -4.5508 -4.2969 -4.5508 s-4.2969 1.6992 -4.2969 4.5508 c0 2.8613 1.8652 4.5703 4.2969 4.5703 z M230.11978515625 5.888999999999999 l2.9199 0 l0 14.111 l-3.3887 0 l-6.25 -10.088 l0 10.088 l-2.9199 0 l0 -14.111 l3.3496 0 l6.2891 10.029 l0 -10.029 z"></path></g></g></svg>